<mxfile host="Electron" agent="Mozilla/5.0 (Windows NT 10.0; Win64; x64) AppleWebKit/537.36 (KHTML, like Gecko) draw.io/24.7.5 Chrome/126.0.6478.183 Electron/31.3.0 Safari/537.36" version="24.7.5">
  <diagram name="第 1 页" id="Kadgmq3M0pKgUadgYNGO">
    <mxGraphModel dx="4017" dy="1515" grid="1" gridSize="10" guides="1" tooltips="1" connect="1" arrows="1" fold="1" page="1" pageScale="1" pageWidth="827" pageHeight="1169" math="0" shadow="0">
      <root>
        <mxCell id="0" />
        <mxCell id="1" parent="0" />
        <mxCell id="8IsOUZq8E-L4HQbrth_U-3" style="edgeStyle=orthogonalEdgeStyle;rounded=0;orthogonalLoop=1;jettySize=auto;html=1;exitX=0.5;exitY=1;exitDx=0;exitDy=0;" parent="1" source="8IsOUZq8E-L4HQbrth_U-4" target="8IsOUZq8E-L4HQbrth_U-5" edge="1">
          <mxGeometry relative="1" as="geometry" />
        </mxCell>
        <mxCell id="8IsOUZq8E-L4HQbrth_U-4" value="&lt;p class=&quot;MsoNormal&quot;&gt;&lt;span style=&quot;mso-spacerun:&#39;yes&#39;;font-family:宋体;mso-ascii-font-family:Calibri;&lt;br/&gt;mso-hansi-font-family:Calibri;mso-bidi-font-family:&#39;Times New Roman&#39;;font-size:10.5000pt;&lt;br/&gt;mso-font-kerning:1.0000pt;&quot;&gt;&lt;font face=&quot;宋体&quot;&gt;点击&lt;/font&gt;&lt;font face=&quot;宋体&quot;&gt;“宠物领养须知”按钮&lt;/font&gt;&lt;/span&gt;&lt;/p&gt;" style="rounded=1;whiteSpace=wrap;html=1;fontSize=12;glass=0;strokeWidth=1;shadow=0;" parent="1" vertex="1">
          <mxGeometry x="-445" y="320" width="200" height="40" as="geometry" />
        </mxCell>
        <mxCell id="8IsOUZq8E-L4HQbrth_U-5" value="&lt;p class=&quot;MsoNormal&quot;&gt;&lt;span style=&quot;mso-spacerun:&#39;yes&#39;;font-family:宋体;mso-ascii-font-family:Calibri;&lt;br/&gt;mso-hansi-font-family:Calibri;mso-bidi-font-family:&#39;Times New Roman&#39;;font-size:10.5000pt;&lt;br/&gt;mso-font-kerning:1.0000pt;&quot;&gt;查看宠物领养相关的须知文档&lt;/span&gt;&lt;/p&gt;" style="rounded=1;whiteSpace=wrap;html=1;fontSize=12;glass=0;strokeWidth=1;shadow=0;" parent="1" vertex="1">
          <mxGeometry x="-455" y="410" width="220" height="40" as="geometry" />
        </mxCell>
        <mxCell id="8IsOUZq8E-L4HQbrth_U-8" style="edgeStyle=orthogonalEdgeStyle;rounded=0;orthogonalLoop=1;jettySize=auto;html=1;exitX=0.75;exitY=0.5;exitDx=0;exitDy=0;exitPerimeter=0;" parent="1" source="8IsOUZq8E-L4HQbrth_U-10" target="8IsOUZq8E-L4HQbrth_U-17" edge="1">
          <mxGeometry relative="1" as="geometry" />
        </mxCell>
        <mxCell id="8IsOUZq8E-L4HQbrth_U-9" style="edgeStyle=orthogonalEdgeStyle;rounded=0;orthogonalLoop=1;jettySize=auto;html=1;exitX=0.25;exitY=0.5;exitDx=0;exitDy=0;exitPerimeter=0;entryX=0.5;entryY=0;entryDx=0;entryDy=0;" parent="1" source="8IsOUZq8E-L4HQbrth_U-10" target="8IsOUZq8E-L4HQbrth_U-13" edge="1">
          <mxGeometry relative="1" as="geometry" />
        </mxCell>
        <mxCell id="8IsOUZq8E-L4HQbrth_U-10" value="" style="shape=line;html=1;strokeWidth=6;strokeColor=#000000;" parent="1" vertex="1">
          <mxGeometry x="-500" y="500" width="320" height="10" as="geometry" />
        </mxCell>
        <mxCell id="8IsOUZq8E-L4HQbrth_U-11" style="edgeStyle=orthogonalEdgeStyle;rounded=0;orthogonalLoop=1;jettySize=auto;html=1;exitX=0.5;exitY=1;exitDx=0;exitDy=0;entryX=0.485;entryY=0.5;entryDx=0;entryDy=0;entryPerimeter=0;" parent="1" source="8IsOUZq8E-L4HQbrth_U-5" target="8IsOUZq8E-L4HQbrth_U-10" edge="1">
          <mxGeometry relative="1" as="geometry">
            <Array as="points">
              <mxPoint x="-345" y="505" />
            </Array>
          </mxGeometry>
        </mxCell>
        <mxCell id="8IsOUZq8E-L4HQbrth_U-12" style="edgeStyle=orthogonalEdgeStyle;rounded=0;orthogonalLoop=1;jettySize=auto;html=1;exitX=0.5;exitY=1;exitDx=0;exitDy=0;" parent="1" source="8IsOUZq8E-L4HQbrth_U-13" target="8IsOUZq8E-L4HQbrth_U-20" edge="1">
          <mxGeometry relative="1" as="geometry" />
        </mxCell>
        <mxCell id="8IsOUZq8E-L4HQbrth_U-13" value="&lt;p class=&quot;MsoNormal&quot;&gt;&lt;span style=&quot;mso-spacerun:&#39;yes&#39;;font-family:宋体;mso-ascii-font-family:Calibri;&lt;br/&gt;mso-hansi-font-family:Calibri;mso-bidi-font-family:&#39;Times New Roman&#39;;font-size:10.5000pt;&lt;br/&gt;mso-font-kerning:1.0000pt;&quot;&gt;&lt;font face=&quot;宋体&quot;&gt;点击&lt;/font&gt;&lt;font face=&quot;宋体&quot;&gt;“&lt;/font&gt;&lt;/span&gt;&lt;span style=&quot;font-family: 宋体; font-size: 10.5pt; background-color: initial;&quot;&gt;宠物领养注意事项&lt;/span&gt;&lt;span style=&quot;font-family: 宋体; font-size: 10.5pt; background-color: initial;&quot;&gt;”按钮&lt;/span&gt;&lt;/p&gt;" style="rounded=1;whiteSpace=wrap;html=1;fontSize=12;glass=0;strokeWidth=1;shadow=0;" parent="1" vertex="1">
          <mxGeometry x="-685" y="590" width="210" height="40" as="geometry" />
        </mxCell>
        <mxCell id="8IsOUZq8E-L4HQbrth_U-14" style="edgeStyle=orthogonalEdgeStyle;rounded=0;orthogonalLoop=1;jettySize=auto;html=1;exitX=0.5;exitY=1;exitDx=0;exitDy=0;entryX=0.5;entryY=0;entryDx=0;entryDy=0;" parent="1" source="8IsOUZq8E-L4HQbrth_U-15" target="8IsOUZq8E-L4HQbrth_U-22" edge="1">
          <mxGeometry relative="1" as="geometry" />
        </mxCell>
        <mxCell id="8IsOUZq8E-L4HQbrth_U-15" value="&lt;p class=&quot;MsoNormal&quot;&gt;&lt;span style=&quot;mso-spacerun:&#39;yes&#39;;font-family:宋体;mso-ascii-font-family:Calibri;&lt;br/&gt;mso-hansi-font-family:Calibri;mso-bidi-font-family:&#39;Times New Roman&#39;;font-size:10.5000pt;&lt;br/&gt;mso-font-kerning:1.0000pt;&quot;&gt;&lt;font face=&quot;宋体&quot;&gt;点击&lt;/font&gt;&lt;font face=&quot;宋体&quot;&gt;“&lt;/font&gt;&lt;/span&gt;&lt;span style=&quot;font-family: 宋体; font-size: 10.5pt; background-color: initial;&quot;&gt;宠物领养条件&lt;/span&gt;&lt;span style=&quot;font-family: 宋体; font-size: 10.5pt; background-color: initial;&quot;&gt;”按钮&lt;/span&gt;&lt;/p&gt;" style="rounded=1;whiteSpace=wrap;html=1;fontSize=12;glass=0;strokeWidth=1;shadow=0;" parent="1" vertex="1">
          <mxGeometry x="-437.5" y="590" width="200" height="40" as="geometry" />
        </mxCell>
        <mxCell id="8IsOUZq8E-L4HQbrth_U-16" style="edgeStyle=orthogonalEdgeStyle;rounded=0;orthogonalLoop=1;jettySize=auto;html=1;exitX=0.5;exitY=1;exitDx=0;exitDy=0;" parent="1" source="8IsOUZq8E-L4HQbrth_U-17" target="8IsOUZq8E-L4HQbrth_U-24" edge="1">
          <mxGeometry relative="1" as="geometry" />
        </mxCell>
        <mxCell id="8IsOUZq8E-L4HQbrth_U-17" value="&lt;p class=&quot;MsoNormal&quot;&gt;&lt;span style=&quot;mso-spacerun:&#39;yes&#39;;font-family:宋体;mso-ascii-font-family:Calibri;&lt;br/&gt;mso-hansi-font-family:Calibri;mso-bidi-font-family:&#39;Times New Roman&#39;;font-size:10.5000pt;&lt;br/&gt;mso-font-kerning:1.0000pt;&quot;&gt;&lt;font face=&quot;宋体&quot;&gt;点击&lt;/font&gt;&lt;font face=&quot;宋体&quot;&gt;“&lt;/font&gt;&lt;/span&gt;&lt;span style=&quot;font-family: 宋体; font-size: 10.5pt; background-color: initial;&quot;&gt;宠物领养合同&lt;/span&gt;&lt;span style=&quot;background-color: initial; font-family: 宋体; font-size: 10.5pt;&quot;&gt;”按钮&lt;/span&gt;&lt;/p&gt;" style="rounded=1;whiteSpace=wrap;html=1;fontSize=12;glass=0;strokeWidth=1;shadow=0;" parent="1" vertex="1">
          <mxGeometry x="-180" y="590" width="200" height="40" as="geometry" />
        </mxCell>
        <mxCell id="8IsOUZq8E-L4HQbrth_U-18" value="" style="endArrow=classic;html=1;rounded=0;exitX=0.483;exitY=0.7;exitDx=0;exitDy=0;exitPerimeter=0;" parent="1" source="8IsOUZq8E-L4HQbrth_U-10" edge="1">
          <mxGeometry width="50" height="50" relative="1" as="geometry">
            <mxPoint x="-345" y="530" as="sourcePoint" />
            <mxPoint x="-345" y="590" as="targetPoint" />
          </mxGeometry>
        </mxCell>
        <mxCell id="8IsOUZq8E-L4HQbrth_U-19" style="edgeStyle=orthogonalEdgeStyle;rounded=0;orthogonalLoop=1;jettySize=auto;html=1;exitX=0.5;exitY=1;exitDx=0;exitDy=0;entryX=0.5;entryY=0;entryDx=0;entryDy=0;" parent="1" source="8IsOUZq8E-L4HQbrth_U-20" target="8IsOUZq8E-L4HQbrth_U-29" edge="1">
          <mxGeometry relative="1" as="geometry" />
        </mxCell>
        <mxCell id="8IsOUZq8E-L4HQbrth_U-20" value="&lt;p class=&quot;MsoNormal&quot;&gt;&lt;span style=&quot;mso-spacerun:&#39;yes&#39;;font-family:宋体;mso-ascii-font-family:Calibri;&lt;br/&gt;mso-hansi-font-family:Calibri;mso-bidi-font-family:&#39;Times New Roman&#39;;font-size:10.5000pt;&lt;br/&gt;mso-font-kerning:1.0000pt;&quot;&gt;查看宠物领养注意事项的详细内容&lt;/span&gt;&lt;/p&gt;" style="rounded=1;whiteSpace=wrap;html=1;fontSize=12;glass=0;strokeWidth=1;shadow=0;" parent="1" vertex="1">
          <mxGeometry x="-700" y="680" width="240" height="40" as="geometry" />
        </mxCell>
        <mxCell id="8IsOUZq8E-L4HQbrth_U-21" style="edgeStyle=orthogonalEdgeStyle;rounded=0;orthogonalLoop=1;jettySize=auto;html=1;exitX=0.5;exitY=1;exitDx=0;exitDy=0;" parent="1" source="8IsOUZq8E-L4HQbrth_U-22" target="8IsOUZq8E-L4HQbrth_U-33" edge="1">
          <mxGeometry relative="1" as="geometry" />
        </mxCell>
        <mxCell id="8IsOUZq8E-L4HQbrth_U-22" value="&lt;p class=&quot;MsoNormal&quot;&gt;&lt;span style=&quot;mso-spacerun:&#39;yes&#39;;font-family:宋体;mso-ascii-font-family:Calibri;&lt;br/&gt;mso-hansi-font-family:Calibri;mso-bidi-font-family:&#39;Times New Roman&#39;;font-size:10.5000pt;&lt;br/&gt;mso-font-kerning:1.0000pt;&quot;&gt;查看宠物领养条件的详细内容&lt;/span&gt;&lt;/p&gt;" style="rounded=1;whiteSpace=wrap;html=1;fontSize=12;glass=0;strokeWidth=1;shadow=0;" parent="1" vertex="1">
          <mxGeometry x="-447.5" y="680" width="220" height="40" as="geometry" />
        </mxCell>
        <mxCell id="8IsOUZq8E-L4HQbrth_U-23" style="edgeStyle=orthogonalEdgeStyle;rounded=0;orthogonalLoop=1;jettySize=auto;html=1;exitX=0.5;exitY=1;exitDx=0;exitDy=0;" parent="1" source="8IsOUZq8E-L4HQbrth_U-24" target="8IsOUZq8E-L4HQbrth_U-26" edge="1">
          <mxGeometry relative="1" as="geometry" />
        </mxCell>
        <mxCell id="8IsOUZq8E-L4HQbrth_U-24" value="&lt;p class=&quot;MsoNormal&quot;&gt;&lt;span style=&quot;mso-spacerun:&#39;yes&#39;;font-family:宋体;mso-ascii-font-family:Calibri;&lt;br/&gt;mso-hansi-font-family:Calibri;mso-bidi-font-family:&#39;Times New Roman&#39;;font-size:10.5000pt;&lt;br/&gt;mso-font-kerning:1.0000pt;&quot;&gt;查看宠物领养合同的详细内容&lt;/span&gt;&lt;/p&gt;" style="rounded=1;whiteSpace=wrap;html=1;fontSize=12;glass=0;strokeWidth=1;shadow=0;" parent="1" vertex="1">
          <mxGeometry x="-187.5" y="680" width="215" height="40" as="geometry" />
        </mxCell>
        <mxCell id="8IsOUZq8E-L4HQbrth_U-25" style="edgeStyle=orthogonalEdgeStyle;rounded=0;orthogonalLoop=1;jettySize=auto;html=1;exitX=0.5;exitY=1;exitDx=0;exitDy=0;entryX=0.5;entryY=0;entryDx=0;entryDy=0;" parent="1" source="8IsOUZq8E-L4HQbrth_U-26" target="8IsOUZq8E-L4HQbrth_U-37" edge="1">
          <mxGeometry relative="1" as="geometry" />
        </mxCell>
        <mxCell id="8IsOUZq8E-L4HQbrth_U-26" value="&lt;p class=&quot;MsoNormal&quot;&gt;&lt;span style=&quot;mso-spacerun:&#39;yes&#39;;font-family:宋体;mso-ascii-font-family:Calibri;&lt;br/&gt;mso-hansi-font-family:Calibri;mso-bidi-font-family:&#39;Times New Roman&#39;;font-size:10.5000pt;&lt;br/&gt;mso-font-kerning:1.0000pt;&quot;&gt;&lt;font face=&quot;宋体&quot;&gt;选择下载宠物领养合同的&lt;/font&gt;&lt;font face=&quot;Calibri&quot;&gt;Word&lt;/font&gt;&lt;font face=&quot;宋体&quot;&gt;或&lt;/font&gt;&lt;font face=&quot;Calibri&quot;&gt;PDF&lt;/font&gt;&lt;font face=&quot;宋体&quot;&gt;文档&lt;/font&gt;&lt;/span&gt;&lt;/p&gt;" style="rounded=1;whiteSpace=wrap;html=1;fontSize=12;glass=0;strokeWidth=1;shadow=0;" parent="1" vertex="1">
          <mxGeometry x="-220" y="765" width="280" height="40" as="geometry" />
        </mxCell>
        <mxCell id="8IsOUZq8E-L4HQbrth_U-27" style="edgeStyle=orthogonalEdgeStyle;rounded=0;orthogonalLoop=1;jettySize=auto;html=1;exitX=0;exitY=0.5;exitDx=0;exitDy=0;entryX=0;entryY=0.5;entryDx=0;entryDy=0;" parent="1" source="8IsOUZq8E-L4HQbrth_U-29" target="8IsOUZq8E-L4HQbrth_U-5" edge="1">
          <mxGeometry relative="1" as="geometry">
            <Array as="points">
              <mxPoint x="-740" y="800" />
              <mxPoint x="-740" y="430" />
            </Array>
          </mxGeometry>
        </mxCell>
        <mxCell id="8IsOUZq8E-L4HQbrth_U-28" style="edgeStyle=orthogonalEdgeStyle;rounded=0;orthogonalLoop=1;jettySize=auto;html=1;exitX=0.5;exitY=1;exitDx=0;exitDy=0;entryX=0.5;entryY=0;entryDx=0;entryDy=0;" parent="1" source="8IsOUZq8E-L4HQbrth_U-29" edge="1">
          <mxGeometry relative="1" as="geometry">
            <mxPoint x="-580" y="940" as="targetPoint" />
          </mxGeometry>
        </mxCell>
        <mxCell id="8IsOUZq8E-L4HQbrth_U-29" value="" style="rhombus;whiteSpace=wrap;html=1;" parent="1" vertex="1">
          <mxGeometry x="-620" y="760" width="80" height="80" as="geometry" />
        </mxCell>
        <mxCell id="8IsOUZq8E-L4HQbrth_U-30" style="edgeStyle=orthogonalEdgeStyle;rounded=0;orthogonalLoop=1;jettySize=auto;html=1;exitX=0;exitY=0.5;exitDx=0;exitDy=0;entryX=0;entryY=0.5;entryDx=0;entryDy=0;" parent="1" source="8IsOUZq8E-L4HQbrth_U-33" target="8IsOUZq8E-L4HQbrth_U-5" edge="1">
          <mxGeometry relative="1" as="geometry">
            <Array as="points">
              <mxPoint x="-377" y="740" />
              <mxPoint x="-740" y="740" />
              <mxPoint x="-740" y="430" />
            </Array>
          </mxGeometry>
        </mxCell>
        <mxCell id="8IsOUZq8E-L4HQbrth_U-31" value="查看其他文档" style="edgeLabel;html=1;align=center;verticalAlign=middle;resizable=0;points=[];" parent="8IsOUZq8E-L4HQbrth_U-30" vertex="1" connectable="0">
          <mxGeometry x="0.1332" y="-4" relative="1" as="geometry">
            <mxPoint y="1" as="offset" />
          </mxGeometry>
        </mxCell>
        <mxCell id="8IsOUZq8E-L4HQbrth_U-32" style="edgeStyle=orthogonalEdgeStyle;rounded=0;orthogonalLoop=1;jettySize=auto;html=1;exitX=0.5;exitY=1;exitDx=0;exitDy=0;" parent="1" source="8IsOUZq8E-L4HQbrth_U-33" edge="1">
          <mxGeometry relative="1" as="geometry">
            <mxPoint x="-337.5" y="940" as="targetPoint" />
          </mxGeometry>
        </mxCell>
        <mxCell id="8IsOUZq8E-L4HQbrth_U-33" value="" style="rhombus;whiteSpace=wrap;html=1;" parent="1" vertex="1">
          <mxGeometry x="-377.5" y="760" width="80" height="80" as="geometry" />
        </mxCell>
        <mxCell id="8IsOUZq8E-L4HQbrth_U-34" style="edgeStyle=orthogonalEdgeStyle;rounded=0;orthogonalLoop=1;jettySize=auto;html=1;exitX=1;exitY=0.5;exitDx=0;exitDy=0;entryX=1;entryY=0.5;entryDx=0;entryDy=0;" parent="1" source="8IsOUZq8E-L4HQbrth_U-37" target="8IsOUZq8E-L4HQbrth_U-5" edge="1">
          <mxGeometry relative="1" as="geometry">
            <Array as="points">
              <mxPoint x="80" y="870" />
              <mxPoint x="80" y="430" />
            </Array>
          </mxGeometry>
        </mxCell>
        <mxCell id="8IsOUZq8E-L4HQbrth_U-35" value="查看其他文档" style="edgeLabel;html=1;align=center;verticalAlign=middle;resizable=0;points=[];" parent="8IsOUZq8E-L4HQbrth_U-34" vertex="1" connectable="0">
          <mxGeometry x="-0.2046" relative="1" as="geometry">
            <mxPoint as="offset" />
          </mxGeometry>
        </mxCell>
        <mxCell id="8IsOUZq8E-L4HQbrth_U-36" style="edgeStyle=orthogonalEdgeStyle;rounded=0;orthogonalLoop=1;jettySize=auto;html=1;exitX=0.5;exitY=1;exitDx=0;exitDy=0;entryX=0.5;entryY=0;entryDx=0;entryDy=0;" parent="1" source="8IsOUZq8E-L4HQbrth_U-37" edge="1">
          <mxGeometry relative="1" as="geometry">
            <mxPoint x="-80.00000000000023" y="940" as="targetPoint" />
          </mxGeometry>
        </mxCell>
        <mxCell id="8IsOUZq8E-L4HQbrth_U-37" value="" style="rhombus;whiteSpace=wrap;html=1;" parent="1" vertex="1">
          <mxGeometry x="-120" y="830" width="80" height="80" as="geometry" />
        </mxCell>
        <mxCell id="8IsOUZq8E-L4HQbrth_U-42" style="edgeStyle=orthogonalEdgeStyle;rounded=0;orthogonalLoop=1;jettySize=auto;html=1;exitX=0.5;exitY=1;exitDx=0;exitDy=0;" parent="1" source="8IsOUZq8E-L4HQbrth_U-43" target="8IsOUZq8E-L4HQbrth_U-45" edge="1">
          <mxGeometry relative="1" as="geometry" />
        </mxCell>
        <mxCell id="8IsOUZq8E-L4HQbrth_U-43" value="&lt;p class=&quot;MsoNormal&quot;&gt;&lt;span style=&quot;mso-spacerun:&#39;yes&#39;;font-family:宋体;mso-ascii-font-family:Calibri;&lt;br/&gt;mso-hansi-font-family:Calibri;mso-bidi-font-family:&#39;Times New Roman&#39;;font-size:10.5000pt;&lt;br/&gt;mso-font-kerning:1.0000pt;&quot;&gt;&lt;font face=&quot;宋体&quot;&gt;点击&lt;/font&gt;&lt;font face=&quot;宋体&quot;&gt;“&lt;/font&gt;&lt;/span&gt;&lt;span style=&quot;font-family: 宋体; font-size: 10.5pt; background-color: initial;&quot;&gt;宠物领养信息&lt;/span&gt;&lt;span style=&quot;font-family: 宋体; font-size: 10.5pt; background-color: initial;&quot;&gt;”按钮&lt;/span&gt;&lt;/p&gt;" style="rounded=1;whiteSpace=wrap;html=1;fontSize=12;glass=0;strokeWidth=1;shadow=0;" parent="1" vertex="1">
          <mxGeometry x="195" y="268.49" width="200" height="40" as="geometry" />
        </mxCell>
        <mxCell id="8IsOUZq8E-L4HQbrth_U-44" style="edgeStyle=orthogonalEdgeStyle;rounded=0;orthogonalLoop=1;jettySize=auto;html=1;exitX=0.5;exitY=1;exitDx=0;exitDy=0;entryX=0.5;entryY=0;entryDx=0;entryDy=0;" parent="1" source="8IsOUZq8E-L4HQbrth_U-45" edge="1">
          <mxGeometry relative="1" as="geometry">
            <mxPoint x="295.0000000000002" y="438.49" as="targetPoint" />
          </mxGeometry>
        </mxCell>
        <mxCell id="8IsOUZq8E-L4HQbrth_U-45" value="&lt;p class=&quot;MsoNormal&quot;&gt;&lt;span style=&quot;mso-spacerun:&#39;yes&#39;;font-family:宋体;mso-ascii-font-family:Calibri;&lt;br/&gt;mso-hansi-font-family:Calibri;mso-bidi-font-family:&#39;Times New Roman&#39;;font-size:10.5000pt;&lt;br/&gt;mso-font-kerning:1.0000pt;&quot;&gt;查看本网站所有领养和待领养的宠物&lt;/span&gt;&lt;/p&gt;" style="rounded=1;whiteSpace=wrap;html=1;fontSize=12;glass=0;strokeWidth=1;shadow=0;" parent="1" vertex="1">
          <mxGeometry x="165" y="360" width="260" height="40" as="geometry" />
        </mxCell>
        <mxCell id="8IsOUZq8E-L4HQbrth_U-46" style="edgeStyle=orthogonalEdgeStyle;rounded=0;orthogonalLoop=1;jettySize=auto;html=1;exitX=0.5;exitY=1;exitDx=0;exitDy=0;entryX=0.5;entryY=0;entryDx=0;entryDy=0;" parent="1" source="8IsOUZq8E-L4HQbrth_U-47" target="8IsOUZq8E-L4HQbrth_U-49" edge="1">
          <mxGeometry relative="1" as="geometry" />
        </mxCell>
        <mxCell id="8IsOUZq8E-L4HQbrth_U-47" value="&lt;p class=&quot;MsoNormal&quot;&gt;&lt;span style=&quot;font-family: 宋体; font-size: 14px; background-color: initial;&quot;&gt;点击底部数字，&lt;/span&gt;&lt;span style=&quot;mso-spacerun:&#39;yes&#39;;font-family:宋体;mso-ascii-font-family:Calibri;&lt;br/&gt;mso-hansi-font-family:Calibri;mso-bidi-font-family:&#39;Times New Roman&#39;;font-size:10.5000pt;&lt;br/&gt;mso-font-kerning:1.0000pt;&quot;&gt;切换页面，浏览其他宠物领养信息&lt;/span&gt;&lt;/p&gt;" style="rounded=1;whiteSpace=wrap;html=1;fontSize=12;glass=0;strokeWidth=1;shadow=0;" parent="1" vertex="1">
          <mxGeometry x="170" y="438.49" width="250" height="45.5" as="geometry" />
        </mxCell>
        <mxCell id="8IsOUZq8E-L4HQbrth_U-48" style="edgeStyle=orthogonalEdgeStyle;rounded=0;orthogonalLoop=1;jettySize=auto;html=1;exitX=0.5;exitY=1;exitDx=0;exitDy=0;" parent="1" source="8IsOUZq8E-L4HQbrth_U-49" target="8IsOUZq8E-L4HQbrth_U-51" edge="1">
          <mxGeometry relative="1" as="geometry" />
        </mxCell>
        <mxCell id="8IsOUZq8E-L4HQbrth_U-49" value="&lt;p class=&quot;MsoNormal&quot;&gt;&lt;span style=&quot;font-family: 宋体; font-size: 14px; background-color: initial;&quot;&gt;鼠标悬停在宠物图片上，&lt;/span&gt;&lt;span style=&quot;mso-spacerun:&#39;yes&#39;;font-family:宋体;mso-ascii-font-family:Calibri;&lt;br/&gt;mso-hansi-font-family:Calibri;mso-bidi-font-family:&#39;Times New Roman&#39;;font-size:10.5000pt;&lt;br/&gt;mso-font-kerning:1.0000pt;&quot;&gt;&lt;font face=&quot;宋体&quot;&gt;系统显示该宠物的更多详细信息&lt;/font&gt;&lt;/span&gt;&lt;/p&gt;" style="rounded=1;whiteSpace=wrap;html=1;fontSize=12;glass=0;strokeWidth=1;shadow=0;" parent="1" vertex="1">
          <mxGeometry x="170" y="528.49" width="250" height="50" as="geometry" />
        </mxCell>
        <mxCell id="8IsOUZq8E-L4HQbrth_U-50" style="edgeStyle=orthogonalEdgeStyle;rounded=0;orthogonalLoop=1;jettySize=auto;html=1;exitX=0.5;exitY=1;exitDx=0;exitDy=0;" parent="1" source="8IsOUZq8E-L4HQbrth_U-51" target="8IsOUZq8E-L4HQbrth_U-56" edge="1">
          <mxGeometry relative="1" as="geometry" />
        </mxCell>
        <mxCell id="8IsOUZq8E-L4HQbrth_U-51" value="&lt;p class=&quot;MsoNormal&quot;&gt;&lt;font style=&quot;background-color: initial; font-family: 宋体; font-size: 14px;&quot; face=&quot;宋体&quot;&gt;点击&lt;/font&gt;&lt;font style=&quot;background-color: initial; font-family: 宋体; font-size: 14px;&quot; face=&quot;宋体&quot;&gt;“了解详情”按钮，&lt;/font&gt;&lt;span style=&quot;mso-spacerun:&#39;yes&#39;;font-family:宋体;mso-ascii-font-family:Calibri;&lt;br/&gt;mso-hansi-font-family:Calibri;mso-bidi-font-family:&#39;Times New Roman&#39;;font-size:10.5000pt;&lt;br/&gt;mso-font-kerning:1.0000pt;&quot;&gt;页面跳转至该宠物的详细信息界面&lt;/span&gt;&lt;/p&gt;" style="rounded=1;whiteSpace=wrap;html=1;fontSize=12;glass=0;strokeWidth=1;shadow=0;" parent="1" vertex="1">
          <mxGeometry x="165" y="618.49" width="260" height="50" as="geometry" />
        </mxCell>
        <mxCell id="8IsOUZq8E-L4HQbrth_U-70" style="edgeStyle=orthogonalEdgeStyle;rounded=0;orthogonalLoop=1;jettySize=auto;html=1;exitX=0.5;exitY=1;exitDx=0;exitDy=0;entryX=0.5;entryY=0;entryDx=0;entryDy=0;" parent="1" source="8IsOUZq8E-L4HQbrth_U-53" target="8IsOUZq8E-L4HQbrth_U-62" edge="1">
          <mxGeometry relative="1" as="geometry" />
        </mxCell>
        <mxCell id="8IsOUZq8E-L4HQbrth_U-53" value="&lt;p class=&quot;MsoNormal&quot;&gt;&lt;span style=&quot;mso-spacerun:&#39;yes&#39;;font-family:宋体;mso-ascii-font-family:Calibri;&lt;br/&gt;mso-hansi-font-family:Calibri;mso-bidi-font-family:&#39;Times New Roman&#39;;font-size:10.5000pt;&lt;br/&gt;mso-font-kerning:1.0000pt;&quot;&gt;&lt;font face=&quot;宋体&quot;&gt;如果有附件，&lt;/font&gt;&lt;/span&gt;&lt;font style=&quot;background-color: initial; font-family: 宋体; font-size: 14px;&quot; face=&quot;宋体&quot;&gt;点击&lt;/font&gt;&lt;font style=&quot;background-color: initial; font-family: 宋体; font-size: 14px;&quot; face=&quot;宋体&quot;&gt;“下载附件”按钮，&lt;/font&gt;&lt;font style=&quot;font-family: 宋体; font-size: 10.5pt; background-color: initial;&quot; face=&quot;宋体&quot;&gt;用户可以下载&lt;/font&gt;&lt;font style=&quot;font-size: 10.5pt; background-color: initial;&quot; face=&quot;Calibri&quot;&gt;PDF&lt;/font&gt;&lt;font style=&quot;font-family: 宋体; font-size: 10.5pt; background-color: initial;&quot; face=&quot;宋体&quot;&gt;附件&lt;/font&gt;&lt;/p&gt;" style="rounded=1;whiteSpace=wrap;html=1;fontSize=12;glass=0;strokeWidth=1;shadow=0;" parent="1" vertex="1">
          <mxGeometry x="277.5" y="768.49" width="245" height="40" as="geometry" />
        </mxCell>
        <mxCell id="8IsOUZq8E-L4HQbrth_U-54" style="edgeStyle=orthogonalEdgeStyle;rounded=0;orthogonalLoop=1;jettySize=auto;html=1;exitX=0.75;exitY=0.5;exitDx=0;exitDy=0;exitPerimeter=0;" parent="1" source="8IsOUZq8E-L4HQbrth_U-56" target="8IsOUZq8E-L4HQbrth_U-53" edge="1">
          <mxGeometry relative="1" as="geometry" />
        </mxCell>
        <mxCell id="8IsOUZq8E-L4HQbrth_U-56" value="" style="shape=line;html=1;strokeWidth=6;strokeColor=#000000;" parent="1" vertex="1">
          <mxGeometry x="130" y="708.49" width="330" height="10" as="geometry" />
        </mxCell>
        <mxCell id="8IsOUZq8E-L4HQbrth_U-59" style="edgeStyle=orthogonalEdgeStyle;rounded=0;orthogonalLoop=1;jettySize=auto;html=1;exitX=1;exitY=0.5;exitDx=0;exitDy=0;entryX=1;entryY=0.5;entryDx=0;entryDy=0;" parent="1" source="8IsOUZq8E-L4HQbrth_U-62" target="8IsOUZq8E-L4HQbrth_U-47" edge="1">
          <mxGeometry relative="1" as="geometry">
            <Array as="points">
              <mxPoint x="550" y="878.49" />
              <mxPoint x="550" y="461.49" />
            </Array>
            <mxPoint x="472.5" y="888.49" as="sourcePoint" />
          </mxGeometry>
        </mxCell>
        <mxCell id="8IsOUZq8E-L4HQbrth_U-60" value="查看其他宠物" style="edgeLabel;html=1;align=center;verticalAlign=middle;resizable=0;points=[];" parent="8IsOUZq8E-L4HQbrth_U-59" vertex="1" connectable="0">
          <mxGeometry x="-0.037" y="-3" relative="1" as="geometry">
            <mxPoint as="offset" />
          </mxGeometry>
        </mxCell>
        <mxCell id="8IsOUZq8E-L4HQbrth_U-62" value="" style="rhombus;whiteSpace=wrap;html=1;" parent="1" vertex="1">
          <mxGeometry x="360" y="838.49" width="80" height="80" as="geometry" />
        </mxCell>
        <mxCell id="8IsOUZq8E-L4HQbrth_U-106" style="edgeStyle=orthogonalEdgeStyle;rounded=0;orthogonalLoop=1;jettySize=auto;html=1;exitX=0.5;exitY=1;exitDx=0;exitDy=0;" parent="1" source="8IsOUZq8E-L4HQbrth_U-64" target="8IsOUZq8E-L4HQbrth_U-102" edge="1">
          <mxGeometry relative="1" as="geometry" />
        </mxCell>
        <mxCell id="8IsOUZq8E-L4HQbrth_U-64" value="&lt;p class=&quot;MsoNormal&quot;&gt;&lt;font face=&quot;宋体&quot;&gt;&lt;span style=&quot;font-size: 14px;&quot;&gt;进入宠物领养界面&lt;/span&gt;&lt;/font&gt;&lt;/p&gt;" style="rounded=1;whiteSpace=wrap;html=1;fontSize=12;glass=0;strokeWidth=1;shadow=0;" parent="1" vertex="1">
          <mxGeometry x="220" y="160" width="140" height="40" as="geometry" />
        </mxCell>
        <mxCell id="8IsOUZq8E-L4HQbrth_U-65" style="edgeStyle=orthogonalEdgeStyle;rounded=0;orthogonalLoop=1;jettySize=auto;html=1;exitX=0.5;exitY=1;exitDx=0;exitDy=0;" parent="1" source="8IsOUZq8E-L4HQbrth_U-66" target="8IsOUZq8E-L4HQbrth_U-64" edge="1">
          <mxGeometry relative="1" as="geometry" />
        </mxCell>
        <mxCell id="8IsOUZq8E-L4HQbrth_U-66" value="" style="ellipse;html=1;shape=startState;fillColor=#000000;strokeColor=#ff0000;" parent="1" vertex="1">
          <mxGeometry x="275" y="90" width="30" height="30" as="geometry" />
        </mxCell>
        <mxCell id="8IsOUZq8E-L4HQbrth_U-71" style="edgeStyle=orthogonalEdgeStyle;rounded=0;orthogonalLoop=1;jettySize=auto;html=1;exitX=0.25;exitY=0.5;exitDx=0;exitDy=0;exitPerimeter=0;" parent="1" source="8IsOUZq8E-L4HQbrth_U-56" edge="1">
          <mxGeometry relative="1" as="geometry">
            <mxPoint x="213" y="940" as="targetPoint" />
            <Array as="points">
              <mxPoint x="213" y="835" />
              <mxPoint x="213" y="951" />
            </Array>
          </mxGeometry>
        </mxCell>
        <mxCell id="8IsOUZq8E-L4HQbrth_U-73" style="edgeStyle=orthogonalEdgeStyle;rounded=0;orthogonalLoop=1;jettySize=auto;html=1;exitX=0.5;exitY=1;exitDx=0;exitDy=0;" parent="1" source="8IsOUZq8E-L4HQbrth_U-62" edge="1">
          <mxGeometry relative="1" as="geometry">
            <mxPoint x="400" y="940" as="targetPoint" />
          </mxGeometry>
        </mxCell>
        <mxCell id="8IsOUZq8E-L4HQbrth_U-74" style="edgeStyle=orthogonalEdgeStyle;rounded=0;orthogonalLoop=1;jettySize=auto;html=1;exitX=0.5;exitY=1;exitDx=0;exitDy=0;entryX=0.5;entryY=0;entryDx=0;entryDy=0;" parent="1" source="8IsOUZq8E-L4HQbrth_U-75" target="8IsOUZq8E-L4HQbrth_U-77" edge="1">
          <mxGeometry relative="1" as="geometry" />
        </mxCell>
        <mxCell id="8IsOUZq8E-L4HQbrth_U-75" value="&lt;p class=&quot;MsoNormal&quot;&gt;&lt;span style=&quot;mso-spacerun:&#39;yes&#39;;font-family:宋体;mso-ascii-font-family:Calibri;&lt;br/&gt;mso-hansi-font-family:Calibri;mso-bidi-font-family:&#39;Times New Roman&#39;;font-size:10.5000pt;&lt;br/&gt;mso-font-kerning:1.0000pt;&quot;&gt;&lt;font face=&quot;宋体&quot;&gt;点击&lt;/font&gt;&lt;font face=&quot;宋体&quot;&gt;“&lt;/font&gt;&lt;/span&gt;&lt;span style=&quot;font-family: 宋体; font-size: 10.5pt; background-color: initial;&quot;&gt;领养信息发布&lt;/span&gt;&lt;span style=&quot;background-color: initial; font-family: 宋体; font-size: 10.5pt;&quot;&gt;”按钮&lt;/span&gt;&lt;/p&gt;" style="rounded=1;whiteSpace=wrap;html=1;fontSize=12;glass=0;strokeWidth=1;shadow=0;" parent="1" vertex="1">
          <mxGeometry x="734.75" y="280" width="200" height="40" as="geometry" />
        </mxCell>
        <mxCell id="8IsOUZq8E-L4HQbrth_U-76" style="edgeStyle=orthogonalEdgeStyle;rounded=0;orthogonalLoop=1;jettySize=auto;html=1;exitX=0.5;exitY=1;exitDx=0;exitDy=0;entryX=0.5;entryY=0;entryDx=0;entryDy=0;" parent="1" source="8IsOUZq8E-L4HQbrth_U-77" target="8IsOUZq8E-L4HQbrth_U-79" edge="1">
          <mxGeometry relative="1" as="geometry" />
        </mxCell>
        <mxCell id="8IsOUZq8E-L4HQbrth_U-77" value="&lt;p class=&quot;MsoNormal&quot;&gt;&lt;font face=&quot;宋体&quot;&gt;&lt;span style=&quot;font-size: 14px;&quot;&gt;进入领养信息发布界面&lt;/span&gt;&lt;/font&gt;&lt;/p&gt;" style="rounded=1;whiteSpace=wrap;html=1;fontSize=12;glass=0;strokeWidth=1;shadow=0;" parent="1" vertex="1">
          <mxGeometry x="751.75" y="340" width="166" height="40" as="geometry" />
        </mxCell>
        <mxCell id="8IsOUZq8E-L4HQbrth_U-78" style="edgeStyle=orthogonalEdgeStyle;rounded=0;orthogonalLoop=1;jettySize=auto;html=1;exitX=0.5;exitY=1;exitDx=0;exitDy=0;entryX=0.5;entryY=0;entryDx=0;entryDy=0;" parent="1" source="8IsOUZq8E-L4HQbrth_U-79" target="8IsOUZq8E-L4HQbrth_U-81" edge="1">
          <mxGeometry relative="1" as="geometry" />
        </mxCell>
        <mxCell id="8IsOUZq8E-L4HQbrth_U-79" value="&lt;p class=&quot;MsoNormal&quot;&gt;&lt;span style=&quot;mso-spacerun:&#39;yes&#39;;font-family:宋体;mso-ascii-font-family:Calibri;&lt;br/&gt;mso-hansi-font-family:Calibri;mso-bidi-font-family:&#39;Times New Roman&#39;;font-size:10.5000pt;&lt;br/&gt;mso-font-kerning:1.0000pt;&quot;&gt;填写/完善表格，上传图片&lt;/span&gt;&lt;/p&gt;" style="rounded=1;whiteSpace=wrap;html=1;fontSize=12;glass=0;strokeWidth=1;shadow=0;" parent="1" vertex="1">
          <mxGeometry x="736.75" y="410" width="196" height="40" as="geometry" />
        </mxCell>
        <mxCell id="8IsOUZq8E-L4HQbrth_U-80" style="edgeStyle=orthogonalEdgeStyle;rounded=0;orthogonalLoop=1;jettySize=auto;html=1;exitX=0.5;exitY=1;exitDx=0;exitDy=0;entryX=0.5;entryY=0;entryDx=0;entryDy=0;" parent="1" source="8IsOUZq8E-L4HQbrth_U-81" target="8IsOUZq8E-L4HQbrth_U-83" edge="1">
          <mxGeometry relative="1" as="geometry" />
        </mxCell>
        <mxCell id="8IsOUZq8E-L4HQbrth_U-81" value="&lt;p class=&quot;MsoNormal&quot;&gt;&lt;span style=&quot;mso-spacerun:&#39;yes&#39;;font-family:宋体;mso-ascii-font-family:Calibri;&lt;br/&gt;mso-hansi-font-family:Calibri;mso-bidi-font-family:&#39;Times New Roman&#39;;font-size:10.5000pt;&lt;br/&gt;mso-font-kerning:1.0000pt;&quot;&gt;勾选了解信息选项&lt;/span&gt;&lt;/p&gt;" style="rounded=1;whiteSpace=wrap;html=1;fontSize=12;glass=0;strokeWidth=1;shadow=0;" parent="1" vertex="1">
          <mxGeometry x="736.75" y="480" width="196" height="40" as="geometry" />
        </mxCell>
        <mxCell id="8IsOUZq8E-L4HQbrth_U-82" style="edgeStyle=orthogonalEdgeStyle;rounded=0;orthogonalLoop=1;jettySize=auto;html=1;exitX=0.5;exitY=1;exitDx=0;exitDy=0;" parent="1" source="8IsOUZq8E-L4HQbrth_U-83" target="8IsOUZq8E-L4HQbrth_U-101" edge="1">
          <mxGeometry relative="1" as="geometry" />
        </mxCell>
        <mxCell id="8IsOUZq8E-L4HQbrth_U-83" value="&lt;p class=&quot;MsoNormal&quot;&gt;&lt;span style=&quot;mso-spacerun:&#39;yes&#39;;font-family:宋体;mso-ascii-font-family:Calibri;&lt;br/&gt;mso-hansi-font-family:Calibri;mso-bidi-font-family:&#39;Times New Roman&#39;;font-size:10.5000pt;&lt;br/&gt;mso-font-kerning:1.0000pt;&quot;&gt;&lt;font face=&quot;宋体&quot;&gt;点击&lt;/font&gt;&lt;font face=&quot;宋体&quot;&gt;“发布领养信息”按钮&lt;/font&gt;&lt;/span&gt;&lt;/p&gt;" style="rounded=1;whiteSpace=wrap;html=1;fontSize=12;glass=0;strokeWidth=1;shadow=0;" parent="1" vertex="1">
          <mxGeometry x="734.75" y="550" width="196" height="40" as="geometry" />
        </mxCell>
        <mxCell id="8IsOUZq8E-L4HQbrth_U-84" style="edgeStyle=orthogonalEdgeStyle;rounded=0;orthogonalLoop=1;jettySize=auto;html=1;exitX=0.5;exitY=1;exitDx=0;exitDy=0;" parent="1" source="8IsOUZq8E-L4HQbrth_U-85" target="8IsOUZq8E-L4HQbrth_U-88" edge="1">
          <mxGeometry relative="1" as="geometry" />
        </mxCell>
        <mxCell id="8IsOUZq8E-L4HQbrth_U-85" value="&lt;p class=&quot;MsoNormal&quot;&gt;&lt;span style=&quot;mso-spacerun:&#39;yes&#39;;font-family:宋体;mso-ascii-font-family:Calibri;&lt;br/&gt;mso-hansi-font-family:Calibri;mso-bidi-font-family:&#39;Times New Roman&#39;;font-size:10.5000pt;&lt;br/&gt;mso-font-kerning:1.0000pt;&quot;&gt;发布成功&lt;/span&gt;&lt;/p&gt;" style="rounded=1;whiteSpace=wrap;html=1;fontSize=12;glass=0;strokeWidth=1;shadow=0;" parent="1" vertex="1">
          <mxGeometry x="734.75" y="730" width="196" height="40" as="geometry" />
        </mxCell>
        <mxCell id="8IsOUZq8E-L4HQbrth_U-86" style="edgeStyle=orthogonalEdgeStyle;rounded=0;orthogonalLoop=1;jettySize=auto;html=1;exitX=0.75;exitY=0.5;exitDx=0;exitDy=0;exitPerimeter=0;" parent="1" source="8IsOUZq8E-L4HQbrth_U-88" target="8IsOUZq8E-L4HQbrth_U-90" edge="1">
          <mxGeometry relative="1" as="geometry" />
        </mxCell>
        <mxCell id="8IsOUZq8E-L4HQbrth_U-87" style="edgeStyle=orthogonalEdgeStyle;rounded=0;orthogonalLoop=1;jettySize=auto;html=1;exitX=0.25;exitY=0.5;exitDx=0;exitDy=0;exitPerimeter=0;entryX=0.5;entryY=0;entryDx=0;entryDy=0;" parent="1" source="8IsOUZq8E-L4HQbrth_U-88" target="8IsOUZq8E-L4HQbrth_U-114" edge="1">
          <mxGeometry relative="1" as="geometry">
            <mxPoint x="710.96" y="942.1400000000001" as="targetPoint" />
            <Array as="points">
              <mxPoint x="741" y="881" />
              <mxPoint x="715" y="881" />
            </Array>
          </mxGeometry>
        </mxCell>
        <mxCell id="8IsOUZq8E-L4HQbrth_U-88" value="" style="shape=line;html=1;strokeWidth=6;strokeColor=#000000;" parent="1" vertex="1">
          <mxGeometry x="650" y="810" width="365.5" height="10" as="geometry" />
        </mxCell>
        <mxCell id="8IsOUZq8E-L4HQbrth_U-89" style="edgeStyle=orthogonalEdgeStyle;rounded=0;orthogonalLoop=1;jettySize=auto;html=1;exitX=0.5;exitY=1;exitDx=0;exitDy=0;entryX=0.5;entryY=0;entryDx=0;entryDy=0;" parent="1" source="8IsOUZq8E-L4HQbrth_U-90" target="8IsOUZq8E-L4HQbrth_U-115" edge="1">
          <mxGeometry relative="1" as="geometry">
            <mxPoint x="976.7200000000003" y="944.4300000000001" as="targetPoint" />
          </mxGeometry>
        </mxCell>
        <mxCell id="8IsOUZq8E-L4HQbrth_U-90" value="&lt;p class=&quot;MsoNormal&quot;&gt;&lt;span style=&quot;mso-spacerun:&#39;yes&#39;;font-family:宋体;mso-ascii-font-family:Calibri;&lt;br/&gt;mso-hansi-font-family:Calibri;mso-bidi-font-family:&#39;Times New Roman&#39;;font-size:10.5000pt;&lt;br/&gt;mso-font-kerning:1.0000pt;&quot;&gt;查看“我的发布”&lt;/span&gt;&lt;/p&gt;" style="rounded=1;whiteSpace=wrap;html=1;fontSize=12;glass=0;strokeWidth=1;shadow=0;" parent="1" vertex="1">
          <mxGeometry x="900.75" y="870" width="155" height="40" as="geometry" />
        </mxCell>
        <mxCell id="8IsOUZq8E-L4HQbrth_U-97" style="edgeStyle=orthogonalEdgeStyle;rounded=0;orthogonalLoop=1;jettySize=auto;html=1;exitX=0.5;exitY=1;exitDx=0;exitDy=0;" parent="1" source="8IsOUZq8E-L4HQbrth_U-101" target="8IsOUZq8E-L4HQbrth_U-85" edge="1">
          <mxGeometry relative="1" as="geometry" />
        </mxCell>
        <mxCell id="8IsOUZq8E-L4HQbrth_U-98" value="符合系统设定" style="edgeLabel;html=1;align=center;verticalAlign=middle;resizable=0;points=[];" parent="8IsOUZq8E-L4HQbrth_U-97" vertex="1" connectable="0">
          <mxGeometry x="-0.1833" y="1" relative="1" as="geometry">
            <mxPoint as="offset" />
          </mxGeometry>
        </mxCell>
        <mxCell id="8IsOUZq8E-L4HQbrth_U-99" style="edgeStyle=orthogonalEdgeStyle;rounded=0;orthogonalLoop=1;jettySize=auto;html=1;exitX=0;exitY=0.5;exitDx=0;exitDy=0;entryX=0;entryY=0.5;entryDx=0;entryDy=0;" parent="1" source="8IsOUZq8E-L4HQbrth_U-101" target="8IsOUZq8E-L4HQbrth_U-79" edge="1">
          <mxGeometry relative="1" as="geometry">
            <Array as="points">
              <mxPoint x="690.75" y="650" />
              <mxPoint x="690.75" y="430" />
            </Array>
          </mxGeometry>
        </mxCell>
        <mxCell id="8IsOUZq8E-L4HQbrth_U-100" value="未符合系统设定" style="edgeLabel;html=1;align=center;verticalAlign=middle;resizable=0;points=[];" parent="8IsOUZq8E-L4HQbrth_U-99" vertex="1" connectable="0">
          <mxGeometry x="-0.1455" y="1" relative="1" as="geometry">
            <mxPoint as="offset" />
          </mxGeometry>
        </mxCell>
        <mxCell id="8IsOUZq8E-L4HQbrth_U-101" value="" style="rhombus;whiteSpace=wrap;html=1;" parent="1" vertex="1">
          <mxGeometry x="792.75" y="610" width="80" height="80" as="geometry" />
        </mxCell>
        <mxCell id="8IsOUZq8E-L4HQbrth_U-104" style="edgeStyle=orthogonalEdgeStyle;rounded=0;orthogonalLoop=1;jettySize=auto;html=1;exitX=0.25;exitY=0.5;exitDx=0;exitDy=0;exitPerimeter=0;entryX=0.5;entryY=0;entryDx=0;entryDy=0;" parent="1" source="8IsOUZq8E-L4HQbrth_U-102" target="8IsOUZq8E-L4HQbrth_U-4" edge="1">
          <mxGeometry relative="1" as="geometry" />
        </mxCell>
        <mxCell id="8IsOUZq8E-L4HQbrth_U-105" style="edgeStyle=orthogonalEdgeStyle;rounded=0;orthogonalLoop=1;jettySize=auto;html=1;exitX=0.75;exitY=0.5;exitDx=0;exitDy=0;exitPerimeter=0;entryX=0.5;entryY=0;entryDx=0;entryDy=0;" parent="1" source="8IsOUZq8E-L4HQbrth_U-102" target="8IsOUZq8E-L4HQbrth_U-75" edge="1">
          <mxGeometry relative="1" as="geometry" />
        </mxCell>
        <mxCell id="8IsOUZq8E-L4HQbrth_U-102" value="" style="shape=line;html=1;strokeWidth=6;strokeColor=#000000;" parent="1" vertex="1">
          <mxGeometry x="-350" y="230" width="1280" height="10" as="geometry" />
        </mxCell>
        <mxCell id="8IsOUZq8E-L4HQbrth_U-107" style="edgeStyle=orthogonalEdgeStyle;rounded=0;orthogonalLoop=1;jettySize=auto;html=1;exitX=0.504;exitY=0.811;exitDx=0;exitDy=0;entryX=0.5;entryY=0;entryDx=0;entryDy=0;exitPerimeter=0;" parent="1" target="8IsOUZq8E-L4HQbrth_U-43" edge="1">
          <mxGeometry relative="1" as="geometry">
            <mxPoint x="295.1200000000001" y="240" as="sourcePoint" />
            <mxPoint x="300" y="241.89" as="targetPoint" />
          </mxGeometry>
        </mxCell>
        <mxCell id="8IsOUZq8E-L4HQbrth_U-108" value="" style="ellipse;html=1;shape=endState;fillColor=#000000;strokeColor=#ff0000;" parent="1" vertex="1">
          <mxGeometry x="-595" y="940" width="30" height="30" as="geometry" />
        </mxCell>
        <mxCell id="8IsOUZq8E-L4HQbrth_U-109" value="" style="ellipse;html=1;shape=endState;fillColor=#000000;strokeColor=#ff0000;" parent="1" vertex="1">
          <mxGeometry x="-352.5" y="940" width="30" height="30" as="geometry" />
        </mxCell>
        <mxCell id="8IsOUZq8E-L4HQbrth_U-110" value="" style="ellipse;html=1;shape=endState;fillColor=#000000;strokeColor=#ff0000;" parent="1" vertex="1">
          <mxGeometry x="-95" y="940" width="30" height="30" as="geometry" />
        </mxCell>
        <mxCell id="8IsOUZq8E-L4HQbrth_U-111" value="" style="ellipse;html=1;shape=endState;fillColor=#000000;strokeColor=#ff0000;" parent="1" vertex="1">
          <mxGeometry x="200" y="940" width="30" height="30" as="geometry" />
        </mxCell>
        <mxCell id="8IsOUZq8E-L4HQbrth_U-113" value="" style="ellipse;html=1;shape=endState;fillColor=#000000;strokeColor=#ff0000;" parent="1" vertex="1">
          <mxGeometry x="385" y="940" width="30" height="30" as="geometry" />
        </mxCell>
        <mxCell id="8IsOUZq8E-L4HQbrth_U-114" value="" style="ellipse;html=1;shape=endState;fillColor=#000000;strokeColor=#ff0000;" parent="1" vertex="1">
          <mxGeometry x="700" y="940" width="30" height="30" as="geometry" />
        </mxCell>
        <mxCell id="8IsOUZq8E-L4HQbrth_U-115" value="" style="ellipse;html=1;shape=endState;fillColor=#000000;strokeColor=#ff0000;" parent="1" vertex="1">
          <mxGeometry x="963.25" y="940" width="30" height="30" as="geometry" />
        </mxCell>
      </root>
    </mxGraphModel>
  </diagram>
</mxfile>
